<?xml version="1.0" encoding="UTF-8"?>
<!DOCTYPE svg PUBLIC "-//W3C//DTD SVG 1.1//EN" "http://www.w3.org/Graphics/SVG/1.1/DTD/svg11.dtd">
<!-- Creator: CorelDRAW 2019 (64-Bit) -->
<svg xmlns="http://www.w3.org/2000/svg" xml:space="preserve" width="2700px" height="1446px" version="1.1" style="shape-rendering:geometricPrecision; text-rendering:geometricPrecision; image-rendering:optimizeQuality; fill-rule:evenodd; clip-rule:evenodd"
viewBox="0 0 2700 1445.79"
 xmlns:xlink="http://www.w3.org/1999/xlink"
 xmlns:xodm="http://www.corel.com/coreldraw/odm/2003">
 <defs>
  <style type="text/css">
   <![CDATA[
    .fil14 {fill:#163560;fill-rule:nonzero}
    .fil15 {fill:#1C468A;fill-rule:nonzero}
    .fil26 {fill:#2B478B;fill-rule:nonzero}
    .fil25 {fill:#4A75CB;fill-rule:nonzero}
    .fil1 {fill:#57F67C;fill-rule:nonzero}
    .fil22 {fill:#5F9AA8;fill-rule:nonzero}
    .fil2 {fill:#6CEE9C;fill-rule:nonzero}
    .fil27 {fill:#739AF0;fill-rule:nonzero}
    .fil20 {fill:#80BDCC;fill-rule:nonzero}
    .fil11 {fill:#82B378;fill-rule:nonzero}
    .fil5 {fill:#A6C7F9;fill-rule:nonzero}
    .fil9 {fill:#A8D29F;fill-rule:nonzero}
    .fil0 {fill:#ABFBBD;fill-rule:nonzero}
    .fil23 {fill:#C45446;fill-rule:nonzero}
    .fil6 {fill:#C65447;fill-rule:nonzero}
    .fil19 {fill:#D68D5D;fill-rule:nonzero}
    .fil8 {fill:#DD7C2C;fill-rule:nonzero}
    .fil12 {fill:#DD8936;fill-rule:nonzero}
    .fil18 {fill:#E37970;fill-rule:nonzero}
    .fil24 {fill:#E49963;fill-rule:nonzero}
    .fil7 {fill:#E57970;fill-rule:nonzero}
    .fil13 {fill:#E58638;fill-rule:nonzero}
    .fil21 {fill:#E7F1FD;fill-rule:nonzero}
    .fil4 {fill:#EE9849;fill-rule:nonzero}
    .fil10 {fill:#F1A34F;fill-rule:nonzero}
    .fil3 {fill:#F3F9FF;fill-rule:nonzero}
    .fil17 {fill:#FCA56B;fill-rule:nonzero}
    .fil16 {fill:#FFB27D;fill-rule:nonzero}
   ]]>
  </style>
 </defs>
 <g id="Layer_x0020_1">
  <metadata id="CorelCorpID_0Corel-Layer"/>
  <g id="_2501015335552">
   <path class="fil0" d="M2408.48 493.91c-106.17,-90.57 -234.17,-636.77 -672.67,-352.29 -226.54,146.98 -608.56,-126.18 -924.76,-31.83 -290.38,86.65 -318.37,372.12 -290.28,465.14 56.76,187.91 -119.86,215.87 -283.71,296.6 -257.01,126.64 -68.01,571.69 174.78,573.83 242.8,2.12 1713.72,-4.24 1713.72,-4.24 0,0 352.71,0.88 499.38,-193.78 157.85,-209.49 57.8,-519.49 -216.46,-753.43z"/>
   <polygon class="fil1" points="1961.05,1173.49 2565.53,1173.49 2565.53,157.87 1961.05,157.87 "/>
   <polygon class="fil2" points="1942.1,1173.49 2546.59,1173.49 2546.59,157.87 1942.1,157.87 "/>
   <polygon class="fil3" points="1983.28,568.36 2506.86,568.36 2506.86,214.6 1983.28,214.6 "/>
   <polygon class="fil3" points="2216.82,1089.21 2497.83,1089.21 2497.83,900.33 2216.82,900.33 "/>
   <path class="fil4" d="M2004.86 395.16c0,0 89.39,-11.14 144.03,39.18 54.62,50.33 156.38,4.46 197.37,0 71.23,-7.75 127.08,15.56 143.66,41.18l0 76.86 -485.06 0 0 -157.22z"/>
   <polygon class="fil5" points="2074.15,391.48 2077.9,391.48 2077.9,271.46 2074.15,271.46 "/>
   <polygon class="fil5" points="2221.16,442.98 2224.9,442.98 2224.9,322.96 2221.16,322.96 "/>
   <polygon class="fil5" points="2372.85,415.83 2376.59,415.83 2376.59,295.81 2372.85,295.81 "/>
   <path class="fil5" d="M2119.73 289.88l-28.72 0c-1.71,0 -3.12,-1.41 -3.12,-3.12l0 0c0,-1.72 1.41,-3.12 3.12,-3.12l28.72 0c1.71,0 3.12,1.4 3.12,3.12l0 0c0,1.71 -1.41,3.12 -3.12,3.12z"/>
   <path class="fil5" d="M2119.73 301.12l-28.72 0c-1.71,0 -3.12,-1.41 -3.12,-3.13l0 0c0,-1.71 1.41,-3.12 3.12,-3.12l28.72 0c1.71,0 3.12,1.41 3.12,3.12l0 0c0,1.72 -1.41,3.13 -3.12,3.13z"/>
   <path class="fil5" d="M2264.56 351.06l-28.73 0c-1.71,0 -3.11,-1.41 -3.11,-3.13l0 0c0,-1.71 1.4,-3.12 3.11,-3.12l28.73 0c1.71,0 3.11,1.41 3.11,3.12l0 0c0,1.72 -1.4,3.13 -3.11,3.13z"/>
   <path class="fil5" d="M2264.56 362.06l-28.73 0c-1.71,0 -3.11,-1.4 -3.11,-3.12l0 0c0,-1.72 1.4,-3.12 3.11,-3.12l28.73 0c1.71,0 3.11,1.4 3.11,3.12l0 0c0,1.72 -1.4,3.12 -3.11,3.12z"/>
   <path class="fil5" d="M2418.74 305.8l-28.72 0c-1.71,0 -3.11,-1.41 -3.11,-3.12l0 0c0,-1.72 1.4,-3.13 3.11,-3.13l28.72 0c1.71,0 3.12,1.41 3.12,3.13l0 0c0,1.71 -1.41,3.12 -3.12,3.12z"/>
   <path class="fil5" d="M2418.74 316.8l-28.72 0c-1.71,0 -3.11,-1.4 -3.11,-3.12l0 0c0,-1.72 1.4,-3.12 3.11,-3.12l28.72 0c1.71,0 3.12,1.4 3.12,3.12l0 0c0,1.72 -1.41,3.12 -3.12,3.12z"/>
   <path class="fil3" d="M2403.46 658.85c0,-28.55 23.16,-51.7 51.7,-51.7 28.55,0 51.71,23.15 51.71,51.7 0,28.55 -23.16,51.7 -51.71,51.7 -28.54,0 -51.7,-23.15 -51.7,-51.7z"/>
   <path class="fil6" d="M2502.48 658.85c0,26.13 -21.18,47.32 -47.32,47.32 -12.34,0 -23.57,-4.72 -31.99,-12.45l31.99 -34.87 0 -47.32c26.14,0 47.32,21.19 47.32,47.32z"/>
   <path class="fil5" d="M2437.14 650.51l-16.99 0c-0.79,0 -1.43,-0.64 -1.43,-1.42l0 0c0,-0.78 0.64,-1.42 1.43,-1.42l16.99 0c0.79,0 1.43,0.64 1.43,1.42l0 0c0,0.78 -0.64,1.42 -1.43,1.42z"/>
   <path class="fil3" d="M2275.1 658.85c0,-28.55 23.16,-51.7 51.71,-51.7 28.54,0 51.7,23.15 51.7,51.7 0,28.55 -23.16,51.7 -51.7,51.7 -28.55,0 -51.71,-23.15 -51.71,-51.7z"/>
   <path class="fil7" d="M2326.81 658.85l29.07 37.33c-8.02,6.26 -18.11,9.99 -29.07,9.99 -26.14,0 -47.32,-21.19 -47.32,-47.32 0,-26.13 21.18,-47.32 47.32,-47.32 24.66,0 44.95,18.89 47.12,43l-47.12 4.32z"/>
   <path class="fil5" d="M2363.25 670.55l-11.82 0c-0.79,0 -1.43,-0.64 -1.43,-1.43l0 0c0,-0.78 0.64,-1.42 1.43,-1.42l11.82 0c0.77,0 1.42,0.64 1.42,1.42l0 0c0,0.79 -0.65,1.43 -1.42,1.43z"/>
   <path class="fil3" d="M2403.46 801.24c0,-28.56 23.16,-51.7 51.7,-51.7 28.55,0 51.71,23.14 51.71,51.7 0,28.55 -23.16,51.7 -51.71,51.7 -28.54,0 -51.7,-23.15 -51.7,-51.7z"/>
   <path class="fil4" d="M2502.48 801.24c0,26.13 -21.18,47.31 -47.32,47.31 -12.34,0 -23.57,-4.71 -31.99,-12.45l31.99 -34.86 0 -47.31c26.14,0 47.32,21.17 47.32,47.31z"/>
   <path class="fil5" d="M2437.14 792.91l-16.99 0c-0.79,0 -1.43,-0.65 -1.43,-1.43l0 0c0,-0.78 0.64,-1.43 1.43,-1.43l16.99 0c0.79,0 1.43,0.65 1.43,1.43l0 0c0,0.78 -0.64,1.43 -1.43,1.43z"/>
   <path class="fil3" d="M2275.1 801.24c0,-28.56 23.16,-51.7 51.71,-51.7 28.54,0 51.7,23.14 51.7,51.7 0,28.55 -23.16,51.7 -51.7,51.7 -28.55,0 -51.71,-23.15 -51.71,-51.7z"/>
   <path class="fil6" d="M2373.93 796.92c-2.17,-24.11 -22.46,-42.99 -47.12,-42.99 -26.14,0 -47.32,21.17 -47.32,47.31 0,26.13 21.18,47.31 47.32,47.31 10.96,0 21.05,-3.72 29.07,-9.98l-29.07 -37.33 47.12 -4.32z"/>
   <path class="fil5" d="M2363.25 812.93l-11.82 0c-0.79,0 -1.43,-0.63 -1.43,-1.42l0 0c0,-0.78 0.64,-1.42 1.43,-1.42l11.82 0c0.77,0 1.42,0.64 1.42,1.42l0 0c0,0.79 -0.65,1.42 -1.42,1.42z"/>
   <polygon class="fil5" points="2485.73,1076.01 2227.79,1076.01 2227.79,923.61 2231.01,923.61 2231.01,1072.8 2485.73,1072.8 "/>
   <path class="fil5" d="M2308.41 1020.9c-31.57,-25.14 -65.14,0 -65.14,0l0 42.96 236.04 0 0 -111.06c-64.14,1.62 -139.33,93.23 -170.9,68.1z"/>
   <path class="fil5" d="M2245.98 935.23l109.99 0c1.47,0 2.69,-1.22 2.69,-2.7 0,-1.49 -1.22,-2.71 -2.69,-2.71l-109.99 0c-1.49,0 -2.71,1.22 -2.71,2.71 0,1.48 1.22,2.7 2.71,2.7z"/>
   <path class="fil5" d="M2245.98 948.44l109.99 0c1.47,0 2.69,-1.22 2.69,-2.71 0,-1.48 -1.22,-2.7 -2.69,-2.7l-109.99 0c-1.49,0 -2.71,1.22 -2.71,2.7 0,1.49 1.22,2.71 2.71,2.71z"/>
   <path class="fil5" d="M2245.48 960.91l72.82 0c1.23,0 2.24,-1 2.24,-2.22l0 -0.98c0,-1.21 -1.01,-2.21 -2.24,-2.21l-72.82 0c-1.21,0 -2.21,1 -2.21,2.21l0 0.98c0,1.22 1,2.22 2.21,2.22z"/>
   <polygon class="fil2" points="1015.01,1247.34 1842.09,1247.34 1842.09,0 1015.01,0 "/>
   <polygon class="fil3" points="1094.92,811.99 1760.82,811.99 1760.82,69.77 1094.92,69.77 "/>
   <path class="fil3" d="M1109.07 1049.14c0,-66.15 53.63,-119.77 119.76,-119.77 66.15,0 119.76,53.62 119.76,119.77 0,66.13 -53.61,119.75 -119.76,119.75 -66.13,0 -119.76,-53.62 -119.76,-119.75z"/>
   <path class="fil4" d="M1330.07 1049.14c0,-55.91 -45.32,-101.24 -101.23,-101.24 -55.92,0 -101.24,45.33 -101.24,101.24 0,55.9 45.32,101.23 101.24,101.23 23.09,0 44.37,-7.73 61.4,-20.75l-61.4 -80.48 94.6 36.1c4.28,-11.22 6.63,-23.39 6.63,-36.1z"/>
   <path class="fil3" d="M1517.11 1049.14c0,-66.15 53.62,-119.77 119.76,-119.77 66.15,0 119.76,53.62 119.76,119.77 0,66.13 -53.61,119.75 -119.76,119.75 -66.14,0 -119.76,-53.62 -119.76,-119.75z"/>
   <path class="fil4" d="M1636.87 947.9c-55.92,0 -101.23,45.33 -101.23,101.24 0,27.67 11.09,52.73 29.09,71l72.14 -71 94.61 36.1c4.27,-11.22 6.62,-23.39 6.62,-36.1 0,-55.91 -45.32,-101.24 -101.23,-101.24z"/>
   <path class="fil8" d="M1622.07 997.74l-43.08 0c-1.69,0 -3.08,1.39 -3.08,3.08l0 0c0,1.69 1.39,3.07 3.08,3.07l43.08 0c1.7,0 3.09,-1.38 3.09,-3.07l0 0c0,-1.69 -1.39,-3.08 -3.09,-3.08z"/>
   <path class="fil8" d="M1622.07 1007.49l-43.08 0c-1.69,0 -3.08,1.38 -3.08,3.07 0,1.7 1.39,3.08 3.08,3.08l43.08 0c1.7,0 3.09,-1.38 3.09,-3.08 0,-1.69 -1.39,-3.07 -3.09,-3.07z"/>
   <path class="fil8" d="M1596.78 1017.23l-17.79 0c-1.69,0 -3.08,1.39 -3.08,3.08 0,1.7 1.39,3.08 3.08,3.08l17.79 0c1.69,0 3.08,-1.38 3.08,-3.08 0,-1.69 -1.39,-3.08 -3.08,-3.08z"/>
   <path class="fil8" d="M1213.22 997.74l-43.1 0c-1.69,0 -3.08,1.39 -3.08,3.08l0 0c0,1.69 1.39,3.07 3.08,3.07l43.1 0c1.69,0 3.07,-1.38 3.07,-3.07l0 0c0,-1.69 -1.38,-3.08 -3.07,-3.08z"/>
   <path class="fil8" d="M1213.22 1007.49l-43.1 0c-1.69,0 -3.08,1.38 -3.08,3.07 0,1.7 1.39,3.08 3.08,3.08l43.1 0c1.69,0 3.07,-1.38 3.07,-3.08 0,-1.69 -1.38,-3.07 -3.07,-3.07z"/>
   <path class="fil8" d="M1187.92 1017.23l-17.8 0c-1.69,0 -3.08,1.39 -3.08,3.08 0,1.7 1.39,3.08 3.08,3.08l17.8 0c1.69,0 3.08,-1.38 3.08,-3.08 0,-1.69 -1.39,-3.08 -3.08,-3.08z"/>
   <polygon class="fil5" points="1154.22,772.76 1224.48,772.76 1224.48,335.03 1154.22,335.03 "/>
   <polygon class="fil5" points="1269.34,772.76 1339.6,772.76 1339.6,213.01 1269.34,213.01 "/>
   <polygon class="fil5" points="1394.95,772.76 1465.22,772.76 1465.22,440.88 1394.95,440.88 "/>
   <polygon class="fil5" points="1517.18,772.76 1587.45,772.76 1587.45,287.74 1517.18,287.74 "/>
   <polygon class="fil5" points="1640.05,772.76 1710.31,772.76 1710.31,505.84 1640.05,505.84 "/>
   <path class="fil5" d="M1584.12 224.64l-59.51 0c-3.38,0 -6.16,2.77 -6.16,6.16 0,3.38 2.78,6.15 6.16,6.15l59.51 0c3.39,0 6.15,-2.77 6.15,-6.15 0,-3.39 -2.76,-6.16 -6.15,-6.16z"/>
   <path class="fil5" d="M1538.16 247.04l-13.55 0c-3.38,0 -6.16,2.77 -6.16,6.16 0,3.38 2.78,6.15 6.16,6.15l13.55 0c3.39,0 6.16,-2.77 6.16,-6.15 0,-3.39 -2.77,-6.16 -6.16,-6.16z"/>
   <path class="fil5" d="M1338.9 129.31l-59.5 0c-3.39,0 -6.17,2.77 -6.17,6.15 0,3.39 2.78,6.16 6.17,6.16l59.5 0c3.39,0 6.16,-2.77 6.16,-6.16 0,-3.38 -2.77,-6.15 -6.16,-6.15z"/>
   <path class="fil5" d="M1292.95 151.71l-13.55 0c-3.39,0 -6.17,2.77 -6.17,6.16l0 0c0,3.38 2.78,6.15 6.17,6.15l13.55 0c3.38,0 6.15,-2.77 6.15,-6.15l0 0c0,-3.39 -2.77,-6.16 -6.15,-6.16z"/>
   <path class="fil5" d="M1459.84 375.55l-59.51 0c-3.38,0 -6.15,2.77 -6.15,6.16 0,3.38 2.77,6.15 6.15,6.15l59.51 0c3.39,0 6.15,-2.77 6.15,-6.15 0,-3.39 -2.76,-6.16 -6.15,-6.16z"/>
   <path class="fil5" d="M1413.88 397.95l-13.55 0c-3.38,0 -6.15,2.77 -6.15,6.16l0 0c0,3.38 2.77,6.15 6.15,6.15l13.55 0c3.39,0 6.16,-2.77 6.16,-6.15l0 0c0,-3.39 -2.77,-6.16 -6.16,-6.16z"/>
   <path class="fil5" d="M1704.94 440.88l-59.51 0c-3.39,0 -6.16,2.77 -6.16,6.16 0,3.38 2.77,6.16 6.16,6.16l59.51 0c3.38,0 6.15,-2.78 6.15,-6.16 0,-3.39 -2.77,-6.16 -6.15,-6.16z"/>
   <path class="fil5" d="M1658.98 463.28l-13.55 0c-3.39,0 -6.16,2.77 -6.16,6.16 0,3.39 2.77,6.16 6.16,6.16l13.55 0c3.39,0 6.16,-2.77 6.16,-6.16 0,-3.39 -2.77,-6.16 -6.16,-6.16z"/>
   <polygon class="fil1" points="298.91,813.12 903.39,813.12 903.39,472.81 298.91,472.81 "/>
   <polygon class="fil2" points="318.57,813.12 923.05,813.12 923.05,472.81 318.57,472.81 "/>
   <path class="fil3" d="M483.89 525.98c-60.36,0 -109.3,48.93 -109.3,109.3 0,60.36 48.94,109.29 109.3,109.29 60.36,0 109.3,-48.93 109.3,-109.29 0,-60.37 -48.94,-109.3 -109.3,-109.3z"/>
   <path class="fil3" d="M855.11 574.22l-181.07 0c-6.57,0 -11.93,5.37 -11.93,11.93l0 0c0,6.56 5.36,11.93 11.93,11.93l181.07 0c6.55,0 11.92,-5.37 11.92,-11.93l0 0c0,-6.56 -5.37,-11.93 -11.92,-11.93z"/>
   <path class="fil3" d="M855.11 623.35l-181.07 0c-6.57,0 -11.93,5.36 -11.93,11.93l0 0c0,6.56 5.36,11.93 11.93,11.93l181.07 0c6.55,0 11.92,-5.37 11.92,-11.93l0 0c0,-6.57 -5.37,-11.93 -11.92,-11.93z"/>
   <path class="fil3" d="M855.11 672.47l-181.07 0c-6.57,0 -11.93,5.37 -11.93,11.93 0,6.56 5.36,11.93 11.93,11.93l181.07 0c6.55,0 11.92,-5.37 11.92,-11.93 0,-6.56 -5.37,-11.93 -11.92,-11.93z"/>
   <path class="fil9" d="M383.82 633.69l100.07 0 0 -100.07c-55.26,0 -100.07,44.8 -100.07,100.07z"/>
   <path class="fil10" d="M583.96 636.91l-200.14 0c0,55.26 44.81,100.07 100.07,100.07l0 0 0 0c0,0 0,0 0,0l0 0c55.27,0 100.07,-44.81 100.07,-100.07z"/>
   <path class="fil11" d="M466.61 582.24l-54.31 0c-3.09,0 -5.62,2.53 -5.62,5.62 0,3.09 2.53,5.62 5.62,5.62l54.31 0c3.09,0 5.62,-2.53 5.62,-5.62 0,-3.09 -2.53,-5.62 -5.62,-5.62z"/>
   <path class="fil11" d="M424.67 602.68l-12.37 0c-3.09,0 -5.62,2.53 -5.62,5.62 0,3.09 2.53,5.62 5.62,5.62l12.37 0c3.09,0 5.62,-2.53 5.62,-5.62 0,-3.09 -2.53,-5.62 -5.62,-5.62z"/>
   <path class="fil12" d="M547.24 661.37l-54.31 0c-3.09,0 -5.62,2.53 -5.62,5.62 0,3.09 2.53,5.62 5.62,5.62l54.31 0c3.09,0 5.62,-2.53 5.62,-5.62 0,-3.09 -2.53,-5.62 -5.62,-5.62z"/>
   <path class="fil12" d="M505.3 681.82l-12.37 0c-3.09,0 -5.62,2.53 -5.62,5.62l0 0c0,3.08 2.53,5.61 5.62,5.61l12.37 0c3.09,0 5.62,-2.53 5.62,-5.61l0 0c0,-3.09 -2.53,-5.62 -5.62,-5.62z"/>
   <polygon class="fil1" points="256.34,1222.09 860.82,1222.09 860.82,874.06 256.34,874.06 "/>
   <polygon class="fil2" points="276,1222.09 880.48,1222.09 880.48,874.06 276,874.06 "/>
   <path class="fil3" d="M332.01 1037.33c0,-60.37 48.94,-109.3 109.3,-109.3 60.36,0 109.3,48.93 109.3,109.3 0,60.36 -48.94,109.3 -109.3,109.3 -60.36,0 -109.3,-48.94 -109.3,-109.3z"/>
   <path class="fil3" d="M631.46 1000.13l181.06 0c6.56,0 11.93,-5.37 11.93,-11.93 0,-6.56 -5.37,-11.93 -11.93,-11.93l-181.06 0c-6.56,0 -11.93,5.37 -11.93,11.93 0,6.56 5.37,11.93 11.93,11.93z"/>
   <path class="fil3" d="M812.52 1025.39l-181.06 0c-6.56,0 -11.93,5.38 -11.93,11.94 0,6.56 5.37,11.92 11.93,11.92l181.06 0c6.56,0 11.93,-5.36 11.93,-11.92 0,-6.56 -5.37,-11.94 -11.93,-11.94z"/>
   <path class="fil3" d="M812.52 1074.52l-181.06 0c-6.56,0 -11.93,5.37 -11.93,11.93l0 0c0,6.56 5.37,11.93 11.93,11.93l181.06 0c6.56,0 11.93,-5.37 11.93,-11.93l0 0c0,-6.56 -5.37,-11.93 -11.93,-11.93z"/>
   <path class="fil10" d="M441.31 1039.1l-100.06 -1.27c-0.01,0.42 -0.01,0.85 -0.01,1.27 0,55.26 44.81,100.07 100.07,100.07 19.76,0 38.18,-5.73 53.69,-15.62l-53.69 -84.45z"/>
   <path class="fil12" d="M445 1070.61l-54.32 0c-3.08,0 -5.61,2.52 -5.61,5.62l0 0c0,3.09 2.53,5.61 5.61,5.61l54.32 0c3.09,0 5.61,-2.52 5.61,-5.61l0 0c0,-3.1 -2.52,-5.62 -5.61,-5.62z"/>
   <path class="fil12" d="M403.06 1091.05l-12.38 0c-3.08,0 -5.61,2.54 -5.61,5.62 0,3.09 2.53,5.62 5.61,5.62l12.38 0c3.09,0 5.61,-2.53 5.61,-5.62 0,-3.08 -2.52,-5.62 -5.61,-5.62z"/>
   <polygon class="fil1" points="256.34,417.05 860.83,417.05 860.83,101.67 256.34,101.67 "/>
   <polygon class="fil2" points="276,417.05 880.48,417.05 880.48,101.67 276,101.67 "/>
   <path class="fil3" d="M332.01 263.99c0,-60.36 48.94,-109.3 109.3,-109.3 60.36,0 109.3,48.94 109.3,109.3 0,60.36 -48.94,109.3 -109.3,109.3 -60.36,0 -109.3,-48.94 -109.3,-109.3z"/>
   <path class="fil9" d="M441.31 163.93c-55.26,0 -100.07,44.8 -100.07,100.06 0,37.86 21.03,70.81 52.05,87.81 16.03,-29.7 48.02,-87.81 48.02,-87.81l47.38 88.15c31.37,-16.89 52.69,-50.03 52.69,-88.15 0,-55.26 -44.8,-100.06 -100.07,-100.06z"/>
   <path class="fil3" d="M812.52 202.93l-181.06 0c-6.56,0 -11.93,5.37 -11.93,11.93l0 0c0,6.57 5.37,11.94 11.93,11.94l181.06 0c6.56,0 11.93,-5.37 11.93,-11.94l0 0c0,-6.56 -5.37,-11.93 -11.93,-11.93z"/>
   <path class="fil3" d="M812.52 252.06l-181.06 0c-6.56,0 -11.93,5.37 -11.93,11.93 0,6.56 5.37,11.93 11.93,11.93l181.06 0c6.56,0 11.93,-5.37 11.93,-11.93 0,-6.56 -5.37,-11.93 -11.93,-11.93z"/>
   <path class="fil3" d="M812.52 301.19l-181.06 0c-6.56,0 -11.93,5.37 -11.93,11.93 0,6.56 5.37,11.93 11.93,11.93l181.06 0c6.56,0 11.93,-5.37 11.93,-11.93 0,-6.56 -5.37,-11.93 -11.93,-11.93z"/>
   <path class="fil11" d="M445 216.2l-54.31 0c-3.09,0 -5.62,2.53 -5.62,5.62 0,3.09 2.53,5.62 5.62,5.62l54.31 0c3.09,0 5.61,-2.53 5.61,-5.62 0,-3.09 -2.52,-5.62 -5.61,-5.62z"/>
   <path class="fil11" d="M403.06 236.64l-12.37 0c-3.09,0 -5.62,2.53 -5.62,5.62l0 0c0,3.09 2.53,5.62 5.62,5.62l12.37 0c3.09,0 5.62,-2.53 5.62,-5.62l0 0c0,-3.09 -2.53,-5.62 -5.62,-5.62z"/>
   <path class="fil13" d="M1020.68 646.32c0,0 70.51,72.79 73.9,100.23 3.39,27.46 -33.54,70.39 -33.54,70.39l-40.36 -170.62z"/>
   <path class="fil14" d="M990.54 1401.43c0,0 -2.4,38.7 -9.89,39.25 -0.99,0.08 -37.97,0.08 -37.97,0.08l-47.2 -0.27c0,0 0.31,-11.38 14.1,-13.78 13.8,-2.4 36.9,-12.11 45.26,-30.34 8.79,-19.18 35.7,5.06 35.7,5.06z"/>
   <path class="fil14" d="M1095.67 1401.43c0,0 -2.4,38.7 -9.88,39.25 -1,0.08 -37.98,0.08 -37.98,0.08l-47.34 -0.17c0,0 0.46,-11.48 14.25,-13.88 13.79,-2.4 36.9,-12.11 45.25,-30.34 8.79,-19.18 35.7,5.06 35.7,5.06z"/>
   <path class="fil14" d="M938.26 986.46c0,0 12.35,78.96 58.4,219.12 46.06,140.15 52.33,200.85 52.33,200.85 0,0 12.46,1.81 25.62,1.81 8.32,0 23.78,-3.19 23.78,-3.19 0,0 0.42,-153.18 -20.8,-223.66 -21.22,-70.48 -4.58,-254.09 -4.58,-254.09l-134.75 59.16z"/>
   <path class="fil15" d="M914.22 931.63c0,0 -1.74,118.97 18.85,265.07 20.57,146.08 13.6,208.09 13.6,208.09 0,0 16.95,3.03 22.9,3.24 6.37,0.21 26.4,-1.6 26.4,-1.6 0,0 29.47,-146.14 21.02,-219.26 -8.44,-73.12 40.35,-250.91 40.35,-250.91l-143.12 -4.63z"/>
   <path class="fil16" d="M1009.67 653.19l-23.25 17.23 -33.61 -7.08c0.46,-3.06 2.68,-15.77 4.7,-27.27 0.12,-0.68 0.25,-1.36 0.36,-2.02 1.73,-9.79 3.22,-18.2 3.22,-18.2l31.4 -15.65 11.7 -5.83c-0.03,0.21 -0.91,10.87 -1.03,12.42 -2.2,27.63 6.51,46.4 6.51,46.4z"/>
   <path class="fil13" d="M955.16 644.5c0.74,-0.31 45.72,-13.58 50.6,-11.97 4.9,1.62 7.78,11.07 7.78,11.07l-73.57 16.64c0,0 5.79,-11.78 15.19,-15.74z"/>
   <path class="fil4" d="M1076.28 946.31c-7.62,34.78 -134.51,38.91 -167.22,7.33 -3.72,-3.59 -3.9,-20.34 -2.5,-42.91 2.75,-44.1 11.56,-110.45 11.9,-144.35 0.16,-16.37 2.42,-33.12 5.41,-48.32 6.38,-32.4 16.1,-57.83 16.1,-57.83 0,0 61.97,-20.04 73.57,-16.63 55.88,16.42 70.37,267.93 62.74,302.71z"/>
   <path class="fil13" d="M906.56 910.73c2.75,-44.1 11.56,-110.45 11.9,-144.35 0.16,-16.37 2.42,-33.12 5.41,-48.32l37.29 -6.58c0,0 36.45,148.89 -54.6,199.25z"/>
   <path class="fil16" d="M926.75 849.25c0,0 2.54,6.07 -2.8,10.16 -5.33,4.08 -8.8,10.68 -7.58,15.51 1.23,4.83 12.94,12.71 16.99,11.44 4.06,-1.27 12.32,-7.64 11.43,-10.19 -0.89,-2.54 5.56,-22.34 -4.34,-29.97 -9.89,-7.62 -13.7,3.05 -13.7,3.05z"/>
   <path class="fil4" d="M968.44 651.31c0,0 -36.36,6.8 -65.34,49.5 -28.97,42.7 -48.03,74.44 -42.7,89.83 5.34,15.39 53.99,68.76 62.38,68.76 8.39,0 21.92,-6.11 22.69,-19.83 0,0 -34.26,-51.34 -27.51,-59.02 2.88,-3.29 44.47,-37.04 50.41,-21.8 9.81,25.23 0.07,-107.44 0.07,-107.44z"/>
   <path class="fil17" d="M1000.8 607.28c-6.89,13.19 -32.57,24.6 -43.29,28.79 0.12,-0.68 0.25,-1.36 0.36,-2.02 1.73,-9.79 3.22,-18.2 3.22,-18.2l31.4 -15.65c6.93,-0.1 11.15,1.65 8.31,7.08z"/>
   <path class="fil16" d="M950.99 616.56c0,0 46.46,14.5 55.04,-14.58 8.58,-29.07 20.36,-46.78 -8.95,-57.27 -29.3,-10.48 -38.37,-1.1 -43.59,7.91 -5.23,9.01 -14.37,59.42 -2.5,63.94z"/>
   <path class="fil14" d="M955.31 549.82c0,0 2.96,33.84 9.97,32.37 6.99,-1.47 13.34,-2.56 12.31,7.64 -1.02,10.2 -10.72,21.98 10.84,23.78 21.56,1.81 52.56,-53.81 46.64,-64.34 -17.09,-30.38 -104.46,-36.51 -79.76,0.55z"/>
   <polygon class="fil16" points="118.72,1336.07 132.86,1395.65 154.05,1395.53 154.83,1336.07 "/>
   <polygon class="fil16" points="296.95,1338.61 337.2,1395.65 352.89,1375.51 328.67,1330.77 "/>
   <path class="fil14" d="M192.31 553.13c-7.32,-4.15 -16.08,-4.6 -22.21,-4.24 1.57,-1.63 4.68,-2.23 4.68,-2.23 -3.8,-0.56 -12.29,3.21 -12.29,3.21 -52.89,-20.38 -61.2,57.49 -60.09,75.59 1.1,18.09 -17.77,23.99 -45.29,38.25 -52.5,27.2 -57.11,63.62 -57.11,63.62 0.41,0.24 0.84,0.52 1.29,0.83 2.6,-4.42 7.97,-12.71 12.49,-13.95 -0.17,0.4 -5.35,11.4 -7.27,17.72 15.48,11.78 44.46,37.88 64.65,56.39 -0.09,-3.62 0.05,-8.75 1.38,-11.46l2.49 15.02c10.81,9.93 18.26,16.92 18.26,16.92 -1.34,-14.62 66.12,-91.77 101.32,-114.88 8.56,-12.61 11.61,-34.9 11.84,-36.65 -1.48,17.67 -4.5,27.58 -7.21,33.16 29.81,-27.43 12.46,-126.28 -6.93,-137.3z"/>
   <path class="fil16" d="M192.52 695.07c0.18,0.08 -16.99,8.99 -29.9,5.46 -12.15,-3.31 -20.09,-19.06 -19.92,-19.1 5.14,-1.02 6.63,-8.09 6.52,-38.47l2.32 0.46 39.11 7.75c0,0 -0.89,12.3 -0.92,23.89 -0.03,9.74 0.56,18.97 2.79,20.01z"/>
   <path class="fil18" d="M148.3 565.89c0,0 19.29,-20.54 43.51,-1.05 0,0 -14.09,-2.44 -43.51,1.05z"/>
   <path class="fil19" d="M190.65 651.17c0,0 -0.89,12.3 -0.92,23.89 -21.88,-0.61 -33.45,-20.57 -38.19,-31.64l39.11 7.75z"/>
   <path class="fil14" d="M147.5 639.16c0,0 -11.46,-18.11 -14.21,-33.61 -1.97,-11.06 3.66,-52.06 44.86,-46.16 0,0 11.97,1.18 23.22,8.78 8.95,6.04 21.86,19.09 7.42,54.86l-3.75 12.09 -57.54 4.04z"/>
   <path class="fil20" d="M346.51 1359.87l-20.73 0.64 -22.44 0.68c0,0 -51.82,-57.7 -80.89,-150.19 -0.68,-2.15 -1.4,-4.33 -2.15,-6.53 -15.91,-46.39 -48.9,-104.62 -66.27,-157.32 -2.77,-8.4 -5.26,-16.3 -7.49,-23.78 -0.71,-2.4 -1.4,-4.75 -2.06,-7.07 -12.81,-44.5 -16.52,-73.72 -19.94,-104.94l125.5 1c0,0 20.27,213.19 96.47,447.51z"/>
   <path class="fil21" d="M232.47 840.25c-0.31,59.72 8.77,85.34 8.77,85.34 0,0 -53.74,27.31 -117.61,7.21 -0.75,-0.24 -52.88,-12.13 -52.88,-12.13 1.07,-2.42 10.58,-42.67 11.62,-44.89 13.48,-28.95 23.72,-41.65 25.32,-50.56 2.96,-16.61 3.03,-33.81 1.55,-50.03 -3.89,-42.93 -15.48,-78.58 -15.48,-78.58 17.4,-3.96 34.14,-10.73 52.26,-17.52 4.16,5.19 16.45,10.43 27.49,10.18 12.72,-0.28 16.7,-5.66 16.23,-11.72 13.56,7.55 24.34,14.72 24.34,14.72 11.52,20.02 34.89,39.45 36.58,70.15 0.42,7.56 -18.18,76.16 -18.19,77.83z"/>
   <path class="fil22" d="M124.54 846.9c-5.49,7.77 -16.01,54.96 -42.17,60.9 13.48,-33.64 23.72,-48.39 25.32,-58.73 2.96,-19.3 3.03,-39.28 1.55,-58.12 8.76,-15.36 15.3,-25.87 15.3,-25.87 0.69,-2.5 13.92,-43.4 18.16,-6.84 4.23,36.59 -12.03,79.98 -18.16,88.66z"/>
   <path class="fil16" d="M197.95 662.14c0,0 -51.77,0.86 -51.8,-31.39 -0.04,-32.25 -6.75,-53.86 26.31,-55.77 33.05,-1.91 39.49,10.39 42.12,21.15 2.63,10.76 -3.16,64.96 -16.63,66.01z"/>
   <path class="fil14" d="M213.04 578.2c-7.99,-9.68 -14.03,-7.58 -17.42,-4.67 -11.19,-16.72 -46.55,7.46 -46.55,7.46 -3.47,23.14 -20.15,36.39 -20.15,36.39 0,0 9.43,5.83 31.19,0.24 17.12,-4.4 29.54,-28.77 34.06,-38.95 3.08,2.73 9.58,9.06 11.52,15.25 2.58,8.21 3.74,25.12 8.67,24.54 0,0 10.68,-25.71 -1.32,-40.26z"/>
   <path class="fil16" d="M132.15 1392.32c0,0 1.71,11.8 -2.7,24.43 0,0 -3.46,15.8 12.1,16.1 15.56,0.28 19.38,-1.18 17.62,-10.87 -1.77,-9.7 -5.12,-26.45 -5.12,-26.45l-21.9 -3.21z"/>
   <path class="fil23" d="M160.63 1440.6c0,0 -0.01,0.01 -0.05,0.03l-32.2 0c-0.03,-0.02 -0.05,-0.03 -0.05,-0.03 -1.76,-8.27 1.12,-23.84 1.12,-23.84 17.62,16.85 28.65,-0.42 28.65,-0.42 2.86,7.2 2.53,24.26 2.53,24.26z"/>
   <path class="fil16" d="M390.4 1424.3c0,0 -28.7,-32.58 -37.51,-48.79l-21.33 10.93 47.69 44.79 11.16 -1.47 -0.01 -5.46z"/>
   <path class="fil23" d="M407.99 1440.54l-39.81 0c-3.5,-3.16 -6.85,-9.52 -10.94,-17.87 -2.35,-4.78 -7.6,-7.41 -13,-8.86l0 26.73 -8.23 0 -7.63 -28.42c-5.08,-9.53 -1.26,-18.26 2.31,-25.79 4.16,-0.01 16.21,3 37.41,27.35 6.96,8 14.65,10.85 22.3,10.62 0.1,0.06 0.21,0.12 0.31,0.17 12.07,5.53 16.01,12.34 17.28,16.07z"/>
   <path class="fil18" d="M406.06 715.67c0,0 -33.98,19 -46.12,24.47 -4.32,1.95 -12.14,5.59 -20.13,9.32 -4.83,2.26 -9.71,4.55 -13.93,6.54 -7.14,3.35 -15.63,1.51 -20.76,-4.48 -18.4,-21.48 -66.03,-68.06 -115.21,-73.9l-0.17 -0.07c0,0 0.01,0.02 0.03,0.06 -0.03,-0.01 -0.05,-0.01 -0.07,-0.01l0.27 0.53c2.77,6.87 29.73,74.24 30.57,88.44 0.88,14.98 3.52,244.9 3.52,244.9 0,0 -1.76,10.57 18.5,6.17 20.26,-4.41 25.54,-8.81 25.54,-8.81 0,0 -19.37,-141.83 -14.09,-191.16 1.04,-9.68 0.1,-20.56 -2.06,-31.8 29.95,18.15 65.27,26.22 65.27,26.22 0,0 13.17,-5.75 33.64,-18.43 8.59,-5.33 18.55,-13.83 28.36,-22.82 11.85,-10.87 32.25,-37.11 32.25,-37.11l-5.41 -18.06z"/>
   <path class="fil22" d="M325.78 1360.51l-22.44 0.68c0,0 -51.82,-57.7 -80.89,-150.19 -0.68,-2.15 -1.4,-4.33 -2.15,-6.53 -15.91,-46.39 -48.9,-104.62 -66.27,-157.32 -2.77,-8.4 -5.26,-16.3 -7.49,-23.78 -0.71,-2.4 -1.4,-4.75 -2.06,-7.07l18.48 -14.02c0,0 55.49,89.86 72.66,174.41 14.93,73.45 74.69,161.83 90.16,183.82z"/>
   <path class="fil20" d="M164.89 1184.57c0.31,41.12 -1.77,135.66 -7.12,174.8l-19.87 0c-10.99,0 -16.47,-0.16 -16.47,-0.16 -13.43,-68.05 -22.99,-124.36 -29.95,-172.88 -5.71,-39.82 -10.78,-73.95 -14.68,-103.34 -3.93,-29.57 -6.67,-54.34 -7.64,-75.26 -0.15,-3.29 -0.27,-6.5 -0.33,-9.61 -0.06,-3.13 -0.08,-6.16 -0.05,-9.12l108.44 -10.56c-1.37,72.04 -12.51,182.23 -12.33,206.13z"/>
   <path class="fil22" d="M137.9 1359.37c-10.99,0 -16.47,-0.16 -16.47,-0.16 -13.43,-68.05 -22.99,-124.36 -29.95,-172.88 -5.71,-39.82 -10.78,-73.95 -14.68,-103.34 -3.93,-29.57 -6.67,-54.34 -7.64,-75.26l39.79 23.41c0,0 -25.4,8.96 -15.71,76.79 9.69,67.83 31.17,241.83 44.66,251.44z"/>
   <path class="fil18" d="M143.02 1007.07c0,0 -7.64,27.59 -34.07,24.07 -26.43,-3.52 -64.01,-19.38 -64.01,-19.38 0,0 11.3,-35.68 25.34,-82.57 17,-56.76 38.05,-129.93 47.96,-176.08 2.79,-12.93 4.69,-23.72 5.39,-31.46l22.39 -42.56c0,0 32.23,73.39 33.99,91.89 1.76,18.5 -36.99,236.09 -36.99,236.09z"/>
   <path class="fil16" d="M237.4 791.63c-12.72,1.68 -17.6,8.43 -19.17,17.55 -0.84,4.92 -3.38,9.78 -5.54,13.22 -12.66,0.67 -42.84,2.32 -68.19,3.92l-2.09 33.25c20.82,-2.58 46.42,-7.87 75.87,-17.95 2.26,-0.39 5.09,-1.79 8.63,-4.7 18.25,-14.95 28.61,-39.98 28.64,-43.56 0.03,-3.59 -5.43,-3.4 -18.15,-1.73z"/>
   <path class="fil23" d="M141.84 809.74c-1.18,29.95 -8.22,88.09 -71.06,119.21 -0.17,0.08 -0.33,0.17 -0.5,0.24 17,-56.76 38.05,-129.93 47.96,-176.08 11.55,17.25 24.25,40.13 23.6,56.63z"/>
   <path class="fil18" d="M146.02 679.09c0,0 -53.75,3.81 -66.67,32.59 -12.92,28.77 -17.03,124.5 -0.59,152.69 0,0 22.64,6.45 62.68,-1.04 0.49,-0.09 0.98,-0.18 1.48,-0.29 0,0 12.77,-31.26 1.32,-37.43 0,0 -33.77,1.77 -30.24,-9.4 3.52,-11.16 32.02,-137.12 32.02,-137.12z"/>
   <path class="fil16" d="M442.5 693.08c-28.92,-3.72 -36.22,22.59 -36.22,22.59l5.4 18.06c8.92,1.23 16.72,-1.09 23.9,-11.38 7.19,-10.28 9.17,-6.33 13.74,-13.98 6.2,-10.38 -3.5,-14.25 -6.82,-15.29z"/>
   <path class="fil16" d="M359.94 740.14c-4.32,1.95 -12.14,5.59 -20.13,9.32 4.28,7.6 9.62,21.39 11.05,44.2 8.59,-5.33 19.71,-14.21 29.21,-23.53 15.24,-14.95 31.4,-36.4 31.4,-36.4l-5.41 -18.06c0,0 -33.98,19 -46.12,24.47z"/>
   <path class="fil24" d="M1893.96 949.67c0,0 -20.57,5.29 -33.63,1.35 -13.08,-3.94 -35.57,2.52 -39.2,7.29 -3.62,4.77 -2.29,6.66 4.18,8.31 6.46,1.64 29.36,11.41 44.42,5.76 15.05,-5.66 34.68,-5.86 34.68,-5.86l-10.45 -16.85z"/>
   <path class="fil25" d="M2071.67 771.05c0,0 -23.09,164.18 -61.35,178.88 -18.86,7.26 -102.27,23.71 -126.95,25.36 0,0 -6.05,-4.9 -4.57,-24.86 0,0 87.38,-32.09 99.79,-49.54 18.48,-25.96 -11.47,-106.08 11.73,-130.47 23.18,-24.38 62.23,-34.87 81.35,0.63z"/>
   <path class="fil26" d="M2068.73 1403.64l0 -35.79 56.35 0c1.51,0 2.76,-1.25 2.76,-2.77l0 -5.73c0,-1.52 -1.25,-2.77 -2.76,-2.77l-56.35 0 0 -203.77c0,-5.71 -4.67,-10.39 -10.39,-10.39l-11.16 0c-5.73,0 -10.4,4.68 -10.4,10.39l0 203.77 -56.35 0c-1.53,0 -2.78,1.25 -2.78,2.77l0 5.73c0,1.52 1.25,2.77 2.78,2.77l56.35 0 0 35.79c-40.78,3.08 -73.45,17.76 -82.62,36.73l197.17 0c-9.17,-18.97 -41.84,-33.65 -82.6,-36.73z"/>
   <path class="fil14" d="M2063.88 1116.94c-6.73,11.43 -14.51,22.14 -22.56,32.28 -24.82,31.35 -51.85,57.19 -56.55,81.62 -0.94,4.87 -2.43,10.11 -4.36,15.63 -1.97,5.6 -4.41,11.48 -7.21,17.56 -10.53,22.89 -26.29,48.53 -42.01,71.84 -27.22,40.3 -52.77,73.92 -52.77,73.92l-46.9 -2c1.88,-4.7 22.33,-60.34 49.69,-128.33 11.11,-27.6 22.92,-56.96 34.32,-85.27 1.51,-3.79 3.05,-7.54 4.54,-11.28 3.48,-8.66 6.93,-17.2 10.26,-25.5 25.7,-63.84 46.16,-114.68 46.16,-114.68 0,0 102.68,-38.9 113.36,-13.69 8.79,20.78 1.62,41.14 -25.97,87.9z"/>
   <path class="fil14" d="M1876.95 1401.26c0,0 -2.4,38.7 -9.89,39.25 -1,0.08 -37.97,0.08 -37.97,0.08l-47.2 -0.28c0,0 0.31,-11.37 14.1,-13.77 13.8,-2.4 36.89,-12.11 45.26,-30.34 8.78,-19.18 35.7,5.06 35.7,5.06z"/>
   <path class="fil14" d="M1985.54 1290.71c0,0 32.61,20.96 29.45,27.77 -0.42,0.9 -18.44,33.19 -18.44,33.19l-23.27 41.08c0,0 -9.78,-5.82 -5.15,-19.03 4.63,-13.22 7.43,-38.11 -4.43,-54.3 -12.45,-17.03 21.84,-28.71 21.84,-28.71z"/>
   <path class="fil15" d="M1941.4 1024.27c0,0 -128.88,80.29 -143.27,134.23 -14.38,53.96 171.45,169.05 171.45,169.05 0,0 20.39,-17.98 23.96,-31.17 0,0 -83.98,-100.63 -102.21,-123.19 -11.19,-13.86 165.47,-47.96 187.05,-81.53 21.6,-33.58 13.86,-61.82 13.86,-61.82l-150.84 -5.57z"/>
   <path class="fil4" d="M2184.66 1127.36l-263.8 0c-5.27,0 -9.58,4.32 -9.58,9.59l0 52.76c0,5.27 4.31,9.59 9.58,9.59l263.8 0c5.26,0 9.58,-4.32 9.58,-9.59l0 -52.76c0,-5.27 -4.32,-9.59 -9.58,-9.59z"/>
   <path class="fil24" d="M2001 742.9c-12.65,7.84 -19.63,17.8 -19.63,17.8 30.88,7.99 82.05,-20.63 82.05,-20.63 0,0 -19.86,-13.35 -27.23,-42.7 -0.37,-1.48 -0.7,-2.99 -1.01,-4.55 -0.96,-4.94 -1.55,-10.29 -1.66,-16.06l-14.19 12.7 -23.59 21.13c0,0 0.52,8.77 3.48,23.85 0.53,2.63 1.1,5.46 1.78,8.46z"/>
   <path class="fil27" d="M2095.99 888.57c-4.43,59.49 3.02,149.93 -2,165.59 -4.34,13.52 -55.3,5.51 -74.99,1 -7.28,-1.66 -16.12,-4.05 -25.24,-6.87 -25.43,-7.88 -53.15,-19.12 -56.13,-27.48 -0.11,-0.32 -0.2,-0.64 -0.26,-0.95 -0.29,-1.21 -0.22,-2.36 0.04,-3.51 0.99,-4.25 4.83,-8.85 5.26,-19.39 0.51,-11.77 0.44,-25.62 0.88,-40.51 0.02,-1.69 0.05,-3.52 0.22,-5.18l0 -0.61c0.02,-0.33 0.02,-0.64 0.04,-0.96 0.42,-16.61 1.3,-34.08 2.31,-51.4 0.63,-10.88 1.38,-21.65 2.23,-31.98 2.22,-26.65 5.2,-50.34 9.17,-65.32 6.47,-24.42 20.72,-40.35 33.7,-52.03l9.38 -8.05c10.46,2.29 22.85,0.78 34.06,-4.53 12.12,-5.76 16.31,-9.88 18.41,-8.32 28.01,21.59 48.13,87.78 42.92,160.5z"/>
   <path class="fil25" d="M1993.92 1048.41c-25.44,-7.88 -53.15,-19.12 -56.14,-27.48 -0.1,-0.32 -0.21,-0.64 -0.28,-0.96 0.02,-1.16 0.04,-2.33 0.07,-3.5 0.98,-4.25 4.8,-8.85 5.26,-19.39 0.5,-11.77 0.41,-25.62 0.87,-40.52 0,-1.68 0.05,-3.51 0.22,-5.18l0 -0.6c0.03,-0.33 0.03,-0.64 0.03,-0.96l96.08 -43.57c0,0 5.52,77.44 -46.11,142.16z"/>
   <path class="fil19" d="M1995.74 710.59c0,0 0.52,8.77 3.48,23.85 23.05,-7.44 33.48,-28.24 36.97,-37.07 0.99,-2.49 1.43,-4.03 1.43,-4.03 0,0 -0.9,-0.19 -2.44,-0.52 -3.24,-0.69 -9.34,-1.98 -15.85,-3.36l-23.59 21.13z"/>
   <path class="fil24" d="M1986.42 710.36c0,0 50.58,5.71 53.67,-25.86 3.05,-31.56 11.67,-52.08 -20.52,-57.06 -32.17,-4.98 -39.62,6.45 -43.22,16.74 -3.59,10.29 -3.02,63.88 10.07,66.18z"/>
   <path class="fil26" d="M2039.87 686.68c0,0 -3.22,-41.9 -49.26,-46.24 -31.56,-2.97 -13.97,-30.12 -10.62,-34.46 0,0 24.19,3.32 48.97,7.41 51.98,8.59 16,66.77 10.91,73.29z"/>
   <polygon class="fil25" points="1794.94,990.81 1790.52,992.25 1752.83,876.28 1757.26,874.84 "/>
   <polygon class="fil25" points="1918.29,981.86 1790.35,984.6 1790.52,992.25 1918.44,989.53 "/>
   <path class="fil24" d="M1904.54 974.92c0,0 -19.85,7.51 -33.28,5.03 -13.43,-2.47 -35.07,6.44 -38.15,11.58 -3.07,5.13 -1.55,6.87 5.06,7.79 6.61,0.92 30.45,8.11 44.79,0.83 14.34,-7.28 33.82,-9.65 33.82,-9.65l-12.24 -15.58z"/>
   <path class="fil27" d="M2061.49 777.79c0,0 -4.86,165.72 -41.26,184.55 -17.96,9.29 -99.04,34.84 -123.4,39.2 0,0 -6.54,-4.21 -7.27,-24.2 0,0 83.31,-41.53 93.72,-60.24 15.5,-27.85 -23.09,-104.18 -2.74,-130.96 20.37,-26.81 58.02,-41.52 80.95,-8.35z"/>
  </g>
 </g>
</svg>
