<svg xmlns="http://www.w3.org/2000/svg" width="838.731" height="591.955" viewBox="0 0 838.731 591.955">
  <g id="_4446" data-name="4446" transform="translate(0 -2.645)">
    <path id="Path_3" data-name="Path 3" d="M874.4,166.53,839,169.543S857.83,201.93,874.4,166.53Z" transform="translate(-239.603 -81.418)" fill="#2dcf95"/>
    <path id="Path_4" data-name="Path 4" d="M803.6,140.53l28.034,22.453S795.312,177.437,803.6,140.53Z" transform="translate(-230.563 -75.002)" fill="#2dcf95"/>
    <rect id="Rectangle_1" data-name="Rectangle 1" width="91.341" height="88.139" transform="translate(356.173 372.97)" fill="#474059"/>
    <rect id="Rectangle_2" data-name="Rectangle 2" width="91.341" height="7.818" transform="translate(356.173 453.291)" opacity="0.1"/>
    <path id="Path_28" data-name="Path 28" d="M447.079,603H580.132a4.519,4.519,0,0,1,4.519,4.519v9.4H442.56v-9.4A4.519,4.519,0,0,1,447.079,603Z" transform="translate(-109.224 -148.82)" fill="#474059"/>
    <rect id="Rectangle_3" data-name="Rectangle 3" width="521.328" height="320.185" rx="25.12" transform="translate(142.558 64.376)" fill="#474059"/>
    <rect id="Rectangle_4" data-name="Rectangle 4" width="498.28" height="261.571" transform="translate(153.532 101.772)" fill="#fff"/>
    <ellipse id="Ellipse_3" data-name="Ellipse 3" cx="4.391" cy="4.338" rx="4.391" ry="4.338" transform="translate(398.285 83.922)" fill="#fff"/>
    <rect id="Rectangle_5" data-name="Rectangle 5" width="91.054" height="1.717" transform="translate(356.369 384.78)" opacity="0.1"/>
    <path id="Path_29" data-name="Path 29" d="M605.606,269.75A103.942,103.942,0,0,0,642.89,449.607l29.043-99.829Z" transform="translate(-172.712 -106.893)" fill="#d6d6e3"/>
    <path id="Path_30" data-name="Path 30" d="M687.267,238a103.512,103.512,0,0,0-66.327,23.914l66.327,80.028,54.923-88.252A103.445,103.445,0,0,0,687.267,238Z" transform="translate(-185.786 -99.057)" fill="#d6d6e3"/>
    <path id="Path_31" data-name="Path 31" d="M699.483,376,670.44,475.822A104,104,0,0,0,803.425,377.83Z" transform="translate(-198.003 -133.115)" fill="#8499f0"/>
    <rect id="Rectangle_6" data-name="Rectangle 6" width="37.66" height="22.596" transform="translate(197.941 192.42)" fill="#8499f0"/>
    <rect id="Rectangle_7" data-name="Rectangle 7" width="37.66" height="22.596" transform="translate(197.941 231.586)" fill="#fc6681"/>
    <rect id="Rectangle_8" data-name="Rectangle 8" width="37.66" height="22.596" transform="translate(197.941 270.753)" fill="#2dcf95"/>
    <rect id="Rectangle_9" data-name="Rectangle 9" width="70.801" height="9.038" transform="translate(255.937 199.199)" fill="#d6d6e3"/>
    <rect id="Rectangle_10" data-name="Rectangle 10" width="70.801" height="9.038" transform="translate(255.937 238.365)" fill="#d6d6e3"/>
    <rect id="Rectangle_11" data-name="Rectangle 11" width="70.801" height="9.038" transform="translate(255.937 277.532)" fill="#d6d6e3"/>
    <rect id="Rectangle_12" data-name="Rectangle 12" width="498.619" height="9.038" transform="translate(153.502 101.283)" fill="#d6d6e3"/>
    <circle id="Ellipse_4" data-name="Ellipse 4" cx="2.26" cy="2.26" r="2.26" transform="translate(157.268 103.542)" fill="#fc6681"/>
    <circle id="Ellipse_5" data-name="Ellipse 5" cx="2.26" cy="2.26" r="2.26" transform="translate(163.294 103.542)" fill="#ffc74c"/>
    <circle id="Ellipse_6" data-name="Ellipse 6" cx="2.26" cy="2.26" r="2.26" transform="translate(169.319 103.542)" fill="#85d459"/>
    <path id="Path_45" data-name="Path 45" d="M958.352,272.7,943.145,262.41s-24.148-8.94-30.881,4.918,29.066,6.711,29.066,6.711l15.207,8.5Z" transform="translate(-257.477 -104.381)" fill="#f7bbc3"/>
    <path id="Path_46" data-name="Path 46" d="M1023.13,685.61c-7.336-1.785-18.649-4.406-24.411-4.979-8.941-.9-8.941-12.051-2.681-10.733,3.4.753,6.4-1.175,8.436-3.073a19.74,19.74,0,0,0,1.777-1.9,5.167,5.167,0,0,1,2.892-1.77c3.352-.753,10.334-1.838,14.627.474a6.312,6.312,0,0,1,2.312,2.538c1.928,3.42,2.93,9.2,3.435,13.859a5.174,5.174,0,0,1-6.387,5.581Z" transform="translate(-277.273 -203.758)" fill="#b77983"/>
    <path id="Path_47" data-name="Path 47" d="M872.93,691.55c-7.336-1.785-18.649-4.406-24.411-4.979-8.94-.9-8.94-12.051-2.681-10.733,4.1.881,7.622-2.079,9.573-4.218.234-.264.452-.512.64-.753a5.165,5.165,0,0,1,2.892-1.77c3.352-.753,10.334-1.838,14.627.474a7.991,7.991,0,0,1,3.066,4.09,47.3,47.3,0,0,1,2.681,12.307,5.175,5.175,0,0,1-6.387,5.581Z" transform="translate(-240.204 -205.224)" fill="#b77983"/>
    <path id="Path_48" data-name="Path 48" d="M881.2,673.657c-10.68,11-19.832-.2-21.218-2.056.233-.264.452-.512.64-.753a5.167,5.167,0,0,1,2.892-1.77c3.351-.753,10.334-1.838,14.627.474A8.092,8.092,0,0,1,881.2,673.657Z" transform="translate(-244.781 -205.219)" opacity="0.1"/>
    <path id="Path_49" data-name="Path 49" d="M1030.282,666.168c-4.625,3.163-20.2,2.38-20.2,2.38a15.328,15.328,0,0,1-1.4-1.732,19.721,19.721,0,0,0,1.777-1.9,5.167,5.167,0,0,1,2.892-1.77c3.352-.753,10.334-1.838,14.627.474A6.313,6.313,0,0,1,1030.282,666.168Z" transform="translate(-281.48 -203.756)" opacity="0.1"/>
    <path id="Path_50" data-name="Path 50" d="M994.09,615.458c-3.133,4.022-21.014,3.133-21.014,3.133s-5.363-5.363-7.6-16.992-21.429-48.747-21.429-48.747c-4.474-5.815-8.052-16.57-8.052-16.57l-7.6-48.74s-36.7,48.31-36.259,58.607-8.052,50.977-8.052,50.977c-3.133,5.363-3.133,25.044-3.133,25.044-11.63,12.051-21.466-2.26-21.466-2.26-2.26-9.392,1.341-40.244,1.341-40.244s5.363-25.933,5.815-42.036,5.852-20.1,5.852-20.1a143.433,143.433,0,0,1,21-46.382,74.186,74.186,0,0,1,4.519-5.935l72.4,8.5a45.746,45.746,0,0,0-3.118,9.6c-4.708,20.231-6.274,56.588-6.274,56.588,16.57,10.733,21.466,39.8,21.466,39.8C982.461,587.289,994.09,615.458,994.09,615.458Z" transform="translate(-244.475 -155.132)" fill="#605d82"/>
    <g id="Group_1" data-name="Group 1" transform="translate(624.561 310.07)" opacity="0.05">
      <path id="Path_51" data-name="Path 51" d="M927.74,500.848l-.927-5.958s-36.635,48.288-36.221,58.584-8.052,50.977-8.052,50.977c-3.133,5.363-3.133,25.044-3.133,25.044a15.343,15.343,0,0,1-7,4.519c3.525.926,7.8.249,12.368-4.519,0,0,0-19.674,3.133-25.044,0,0,8.5-40.673,8.052-50.977C895.609,545.437,918,514.082,927.74,500.848Z" transform="translate(-872.41 -472.527)"/>
      <path id="Path_52" data-name="Path 52" d="M995.751,579.679s-4.919-29.066-21.466-39.8c0,0,1.567-36.349,6.274-56.588a45.747,45.747,0,0,1,3.118-9.6l-72.443-8.5-.474.572,67.554,7.924a45.724,45.724,0,0,0-3.118,9.6c-4.708,20.231-6.274,56.588-6.274,56.588,16.571,10.733,21.466,39.8,21.466,39.8,0,7.6,11.629,35.777,11.629,35.777-1.845,2.373-8.82,3.013-14.228,3.179,4.293.113,17.007.151,19.583-3.179C1007.35,615.456,995.751,587.286,995.751,579.679Z" transform="translate(-881.875 -465.2)"/>
    </g>
    <path id="Path_53" data-name="Path 53" d="M884.983,454.4a16.191,16.191,0,0,1-2.116,3.706c-2.689,3.623-8.285,8.413-18.521,7.1a4.4,4.4,0,0,1-3.013-6.914,27.549,27.549,0,0,1,13.482-10.334,24.29,24.29,0,0,1,5.709-1.16Z" transform="translate(-244.913 -150.589)" fill="#f7bbc3"/>
    <path id="Path_54" data-name="Path 54" d="M1004.262,286.563,968.4,273.45s-10.289,5.363-6.259,12.97l34.881,21.911Z" transform="translate(-269.764 -107.806)" fill="#d9d9ea"/>
    <path id="Path_55" data-name="Path 55" d="M1004.262,286.563,968.4,273.45s-10.289,5.363-6.259,12.97l34.881,21.911Z" transform="translate(-269.764 -107.806)" opacity="0.1"/>
    <path id="Path_56" data-name="Path 56" d="M1013.694,261.87s-.444,21.014,8.941,28.17-27.281,11.177-27.281,11.177,5.815-21.466,0-32.644S1013.694,261.87,1013.694,261.87Z" transform="translate(-277.968 -104.73)" fill="#f7bbc3"/>
    <path id="Path_57" data-name="Path 57" d="M981.792,473.711a45.739,45.739,0,0,0-3.118,9.6c-43.249,6.606-73.347-11.388-73.347-11.388-.166-.256-.324-.52-.467-.753a74.154,74.154,0,0,1,4.519-5.935Z" transform="translate(-255.857 -155.137)" opacity="0.1"/>
    <path id="Path_58" data-name="Path 58" d="M889.666,454.4a16.2,16.2,0,0,1-2.117,3.706c-4.143-.685-7.449-8.6-8.059-10.146a24.291,24.291,0,0,1,5.709-1.16Z" transform="translate(-249.596 -150.589)" opacity="0.1"/>
    <path id="Path_59" data-name="Path 59" d="M989.33,287.1l-16.1,5.815-6.711,8.94s-13.859,4.474-15.651,4.474-6.711,1.785-9.837,8.94-14.311,42.036-24.148,47.851-35.777,44.717-35.777,44.717,4.474,12.051,9.837,10.289l12.526-10.289s-9.837,9.837-4.022,18.785c0,0,36.666,21.911,87.2,8.5l.445-13.414,2.26,10.733,24.991-15.659s-2.26-28.863-6.281-43.558a26.542,26.542,0,0,1,1.725-18.506c6.493-13.558,16.51-36.154,15.29-44.371-1.439-9.709-6.929-13.927-9.038-15.207a3.767,3.767,0,0,0-1.574-.52l-8.142-.813Z" transform="translate(-249.996 -111.175)" fill="#d9d9ea"/>
    <path id="Path_60" data-name="Path 60" d="M969.963,346.76s-8.948,41.607-18.785,48.3-36.222,28.17-37.118,31.747" transform="translate(-258.128 -125.899)" opacity="0.05"/>
    <path id="Path_61" data-name="Path 61" d="M964.615,345s-8.941,41.577-18.777,48.28-36.222,28.17-37.118,31.747" transform="translate(-256.81 -125.465)" fill="#d9d9ea"/>
    <path id="Path_62" data-name="Path 62" d="M994.21,303.753s30.881-10.289,39.8-7.6" transform="translate(-277.909 -113.299)" opacity="0.1"/>
    <g id="Group_2" data-name="Group 2" transform="translate(737.828 175.925)" opacity="0.05">
      <path id="Path_63" data-name="Path 63" d="M1045.109,357.074c6.493-13.558,16.51-36.154,15.29-44.371-1.439-9.709-6.93-13.927-9.039-15.207a3.763,3.763,0,0,0-1.574-.52l-3.48-.347a3.672,3.672,0,0,1,1.032.422c2.094,1.281,7.585,5.491,9.039,15.207,1.22,8.24-8.8,30.836-15.29,44.371a26.544,26.544,0,0,0-1.725,18.506c4.037,14.687,6.281,43.558,6.281,43.558l-21.564,13.475.55,2.621,25-15.659s-2.26-28.863-6.282-43.558a26.542,26.542,0,0,1,1.763-18.5Z" transform="translate(-1023.109 -289.452)"/>
      <path id="Path_64" data-name="Path 64" d="M994.067,239.829l3.871.392L981.1,233.57l-1.506.542Z" transform="translate(-979.59 -233.57)"/>
    </g>
    <path id="Path_65" data-name="Path 65" d="M982.93,400.519s13.859-7.6,18.333-5.815,21.014-.444,21.014-.444" transform="translate(-275.125 -137.622)" opacity="0.05"/>
    <path id="Path_66" data-name="Path 66" d="M1012.2,268.052c-.512-4.519,1.567-3.766,1.567-3.766s-24.163-4.5-18.363,6.673a25.757,25.757,0,0,1,2.486,9.837h.226C1004.821,280.8,1008.737,273.294,1012.2,268.052Z" transform="translate(-277.982 -105.323)" opacity="0.05"/>
    <circle id="Ellipse_7" data-name="Ellipse 7" cx="19.229" cy="19.229" r="19.229" transform="translate(700.876 135.23)" fill="#f7bbc3"/>
    <path id="Path_67" data-name="Path 67" d="M1008.345,255.342a26.6,26.6,0,0,0,2.809-12.179c-.2-4.2-2.094-8.466-5.581-10.816-1.808-1.213-3.932-1.868-5.8-2.975-1.461-.866-2.749-1.988-4.143-2.96a23.44,23.44,0,0,0-23.409-1.7c-3.533,1.77-6.538,4.406-9.867,6.53s-7.253,3.766-11.155,3.126c-.67,1.86.972,3.7,2.493,4.971,2.877,2.41,6.139,4.82,9.89,4.9,1.454,0,3.013-.279,4.3.331a6.176,6.176,0,0,1,2.2,2.041,39.966,39.966,0,0,1,4.557,7.735,6.526,6.526,0,0,0,2.041,3.013c1.725,1.107,3.969.188,6.026.105,3.186-.121,6.026,1.883,8.406,4.022s4.6,4.595,7.577,5.724c2.26.844,6.666.813,7.8-1.838.429-1-.392-3.148-.226-4.369A19.629,19.629,0,0,1,1008.345,255.342Z" transform="translate(-267.256 -95.197)" opacity="0.1"/>
    <path id="Path_68" data-name="Path 68" d="M1008.935,254.752a26.6,26.6,0,0,0,2.809-12.179c-.2-4.2-2.094-8.466-5.581-10.816-1.808-1.213-3.932-1.868-5.8-2.975-1.461-.866-2.749-1.988-4.143-2.96a23.439,23.439,0,0,0-23.409-1.7c-3.533,1.77-6.538,4.406-9.867,6.53s-7.253,3.766-11.155,3.126c-.671,1.86.971,3.7,2.493,4.971,2.877,2.41,6.139,4.82,9.89,4.9,1.454,0,3.013-.279,4.3.331a6.177,6.177,0,0,1,2.2,2.041,39.972,39.972,0,0,1,4.587,7.728,6.525,6.525,0,0,0,2.041,3.013c1.725,1.107,3.969.188,6.026.105,3.186-.12,6.026,1.883,8.406,4.022s4.6,4.594,7.577,5.724c2.26.844,6.666.813,7.8-1.838.429-1-.392-3.148-.226-4.369A19.764,19.764,0,0,1,1008.935,254.752Z" transform="translate(-267.402 -95.051)" fill="#a1616a"/>
  </g>
</svg>
