<?xml version="1.0" encoding="UTF-8"?>
<!DOCTYPE svg PUBLIC "-//W3C//DTD SVG 1.1//EN" "http://www.w3.org/Graphics/SVG/1.1/DTD/svg11.dtd">
<!-- Creator: CorelDRAW 2019 (64-Bit) -->
<svg xmlns="http://www.w3.org/2000/svg" xml:space="preserve" width="3480px" height="2456px" version="1.1" style="shape-rendering:geometricPrecision; text-rendering:geometricPrecision; image-rendering:optimizeQuality; fill-rule:evenodd; clip-rule:evenodd"
viewBox="0 0 2773.5 1957.47"
 xmlns:xlink="http://www.w3.org/1999/xlink"
 xmlns:xodm="http://www.corel.com/coreldraw/odm/2003">
 <defs>
  <style type="text/css">
   <![CDATA[
    .fil1 {fill:#2DCF95;fill-rule:nonzero}
    .fil7 {fill:#2F2E41;fill-rule:nonzero}
    .fil12 {fill:#3F3D56;fill-rule:nonzero}
    .fil2 {fill:#605D82;fill-rule:nonzero}
    .fil11 {fill:#8985A8;fill-rule:nonzero}
    .fil3 {fill:#B77983;fill-rule:nonzero}
    .fil6 {fill:#CCCCCC;fill-rule:nonzero}
    .fil5 {fill:#D9D9EA;fill-rule:nonzero}
    .fil9 {fill:#E6E6E6;fill-rule:nonzero}
    .fil8 {fill:#F2F2F2;fill-rule:nonzero}
    .fil4 {fill:#F7BBC3;fill-rule:nonzero}
    .fil10 {fill:black;fill-rule:nonzero;fill-opacity:0.101961}
    .fil0 {fill:#2DCF95;fill-rule:nonzero;fill-opacity:0.101961}
   ]]>
  </style>
 </defs>
 <g id="Layer_x0020_1">
  <metadata id="CorelCorpID_0Corel-Layer"/>
  <path class="fil0" d="M2607.73 1141.32c-97.64,133.8 -65.26,324.78 -8.97,476.94 18.88,50.93 40.32,104.81 30.54,160.22 -11.96,67.75 -68.15,118.51 -126.55,146.16 -106.48,50.38 -232.26,42.34 -327.5,-21.15 -82.2,-54.79 -140.05,-145.85 -223.84,-198.03 -140.22,-87.3 -322.27,-48.3 -478.33,18.35 -110.41,47.15 -231.36,107.87 -338.96,64.34 -75.71,-30.64 -126.7,-108.62 -153.52,-191.98 -12.95,-40.25 -22.02,-83.94 -47.82,-115.45 -15.34,-18.73 -35.62,-31.78 -56.46,-42.69 -190.26,-99.62 -435,-37.36 -619.46,-148.51 -124.53,-75.07 -202.04,-220.75 -234.24,-373.9 -32.21,-153.16 -24.24,-314.82 -11.41,-473.73 9.11,-112.92 23.54,-233.6 91.43,-322.34 71.81,-93.85 192.16,-131.16 299.78,-116.44 107.62,14.72 204.08,74.57 288.52,145.8 105.57,89.07 202.71,200.83 334.02,234.55 89.44,23.02 184.46,6.73 277.43,-0.47 155.42,-12.01 310.29,1.82 464.21,17.43 147.35,14.95 295.72,31.64 435.27,80.63 98.76,34.67 177.04,100.2 270.02,144.98 60.59,29.19 127.27,35.96 184.31,73.67 70.38,46.45 133.99,128.74 113.35,227.5 -19.51,93.87 -110.02,143.11 -161.82,214.12z"/>
  <path class="fil1" d="M2001.93 1724.3l-1207.98 0 0.55 -128.08c1.38,-324.07 260.05,-591.11 584.07,-596.62 3.51,-0.06 7.01,-0.09 10.52,-0.09l0 0c0.17,0 0.31,0 0.46,0 72.74,0 145.03,12.98 213.14,38.34 229.27,85.39 383.16,302.33 393.4,546.78l5.84 139.67z"/>
  <polygon class="fil2" points="1377.48,1151.46 1430.71,1190.17 1483.94,1645.02 1609.75,1645.02 1566.2,1127.27 1392,1059.52 "/>
  <path class="fil2" d="M1154.9 1006.3c0,0 -14.52,164.52 43.55,169.36 58.06,4.83 280.65,-48.39 280.65,-48.39l106.45 377.43 159.68 -82.26c0,0 -96.77,-425.82 -154.84,-450.02 -58.06,-24.19 -251.62,-72.58 -251.62,-72.58l-140.32 24.2 -43.55 82.26z"/>
  <path class="fil3" d="M1503.29 1635.34c0,0 -29.03,111.3 -9.68,120.98 11.58,5.77 22.99,12.31 33.88,19.36l0 -19.35c0,0 24.2,24.19 24.2,43.55 0,19.35 130.64,24.19 130.64,0 0,-24.2 -4.83,-53.23 -29.03,-67.75 -24.19,-14.51 -53.23,-96.77 -53.23,-96.77l-96.78 -0.02z"/>
  <polygon class="fil2" points="1643.62,1436.95 1653.3,1528.89 1687.17,1586.96 1769.43,1495.02 1706.52,1393.4 "/>
  <path class="fil3" d="M1721.04 1528.89c0,0 17.82,-60.92 35.52,-54.65 17.71,6.26 85.45,69.17 85.45,69.17l48.39 29.03c0,0 96.78,9.68 67.74,38.71 -29.03,29.03 -135.48,67.74 -183.87,48.39 -48.39,-19.36 -58.07,-24.2 -58.07,-24.2l-14.51 9.68 -58.07 -14.51 9.68 -101.62c0,0 14.51,43.55 67.74,0z"/>
  <circle class="fil4" cx="1319.42" cy="290.15" r="111.29"/>
  <path class="fil4" d="M1249.25 355.47c0,0 9.68,101.62 -19.35,101.62 -29.03,0 4.84,125.81 82.26,125.81 77.42,0 106.45,-150 106.45,-150 0,0 -53.22,-19.36 -43.55,-82.26 9.68,-62.91 -125.81,4.83 -125.81,4.83z"/>
  <path class="fil5" d="M1241.54 449.34l-40.67 17.43 -110.4 46.7c-8.29,3.51 -13.68,11.65 -13.68,20.65 0,0.83 0.04,1.68 0.14,2.51l41.68 370.47c0,0 -43.55,91.94 24.19,96.78l9.68 33.87 77.42 -91.94 290.33 -9.68 4.84 -469.36 -132.84 -52.5c0,0 -18.07,99.9 -150.69,35.07z"/>
  <path class="fil5" d="M1106.51 527.25l-17.88 -5.11c-1.32,-0.37 -2.68,-0.56 -4.05,-0.56 -7.25,0 -13.42,5.26 -14.56,12.42l-47.45 297.65c-0.95,5.65 -1.43,11.39 -1.43,17.12 0,16.49 3.96,32.78 11.52,47.43 14.66,27.76 45.12,52.94 107.72,23l43.55 -314.52 -77.42 -77.43z"/>
  <path class="fil5" d="M1469.42 459.51l58.07 9.68 159.68 222.58 14.52 38.71 91.93 -29.03c0,0 -4.84,43.55 43.55,38.71 0,0 -58.06,159.68 -179.03,111.29 -120.98,-48.38 -159.69,-193.55 -159.69,-193.55l-29.03 -198.39z"/>
  <polygon class="fil6" points="1537.17,556.29 1319.42,469.19 1309.74,498.22 1411.35,585.32 "/>
  <path class="fil7" d="M1252.41 297.24c4.11,-1.09 4.71,-6.55 4.85,-10.8 0.74,-22.77 14.45,-46.14 36.25,-52.77 5.24,-1.43 10.68,-2.17 16.12,-2.17 3.19,0 6.41,0.27 9.56,0.76 12.21,1.62 24.04,5.57 34.79,11.61 5.68,3.19 11.25,7.03 17.69,8.01 4.25,0.64 22.66,6 26.9,6.75 9.31,1.66 17.96,9.99 26.89,6.89 8.55,-2.97 10.44,-14.04 10.65,-23.08 0.47,-20.61 -15.17,-49.13 -28.95,-64.45 -10.46,-11.64 -26.2,-17.01 -41.59,-19.8 -14.52,-2.29 -29.22,-3.51 -43.93,-3.51 -3.48,0 -7.03,0.1 -10.47,0.2 -24.63,0.44 -49.95,2.34 -72.15,13 -22.21,10.66 -40.87,31.87 -41.93,56.48 -0.22,5.12 0.3,10.27 -0.13,15.38 -1.05,12.48 -7.67,23.74 -10.78,35.87 -1.27,5.19 -1.94,10.54 -1.94,15.89 0,13.01 3.88,25.75 11.12,36.56 8.25,12.12 41.21,23.14 40.73,37.79 5.96,-6.17 -8.09,-12.38 -2.13,-18.55 3.63,-2.78 5.76,-7.1 5.76,-11.67 0,-2.17 -0.48,-4.31 -1.4,-6.27l-6.33 -24.67c-1.16,-4.52 -2.29,-9.41 -0.55,-13.73 6.79,-16.76 14.12,8.11 20.97,6.28z"/>
  <polygon class="fil8" points="1309.74,498.22 1217.8,856.29 1575.88,982.1 1783.95,807.9 1914.59,415.96 1701.68,570.8 "/>
  <rect class="fil9" transform="matrix(0.255154 -0.9669 0.9669 0.255154 1326.06 541.689)" width="4.84" height="360.32"/>
  <rect class="fil9" transform="matrix(0.255154 -0.9669 0.9669 0.255154 1316.38 565.883)" width="4.84" height="360.32"/>
  <rect class="fil9" transform="matrix(0.255154 -0.9669 0.9669 0.255154 1311.54 590.077)" width="4.84" height="360.32"/>
  <rect class="fil9" transform="matrix(0.255154 -0.9669 0.9669 0.255154 1306.7 614.272)" width="4.84" height="360.32"/>
  <rect class="fil9" transform="matrix(0.255154 -0.9669 0.9669 0.255154 1301.86 638.465)" width="4.84" height="360.32"/>
  <rect class="fil9" transform="matrix(0.255154 -0.9669 0.9669 0.255154 1297.03 662.659)" width="4.84" height="360.32"/>
  <rect class="fil9" transform="matrix(0.255154 -0.9669 0.9669 0.255154 1292.19 686.854)" width="4.84" height="360.32"/>
  <rect class="fil9" transform="matrix(0.255154 -0.9669 0.9669 0.255154 1287.35 711.048)" width="4.84" height="360.32"/>
  <rect class="fil9" transform="matrix(0.255154 -0.9669 0.9669 0.255154 1282.51 735.242)" width="4.84" height="360.32"/>
  <path class="fil4" d="M1162.2 761.62c0,0 108.83,-65.01 157.22,-21.46 48.39,43.55 -140.33,106.46 -140.33,106.46l-16.89 -85z"/>
  <path class="fil5" d="M1043.61 793.39l140.32 -53.23c0,0 -24.19,91.94 24.19,96.78l-67.74 82.26c0,0 -135.49,0 -96.77,-125.81z"/>
  <polygon class="fil9" points="1412.87,791.4 1599.07,854.16 1555.01,950.22 1368.8,887.46 "/>
  <polygon class="fil6" points="1742.81,587.74 1883.14,481.28 1844.43,611.93 1699.27,718.39 "/>
  <rect class="fil9" transform="matrix(0.796707 -0.604365 0.604365 0.796707 1673.61 764.845)" width="176.14" height="4.84"/>
  <rect class="fil9" transform="matrix(0.796707 -0.604365 0.604365 0.796707 1663.93 818.072)" width="176.14" height="4.84"/>
  <path class="fil4" d="M1822.66 745c0,0 120.97,-72.58 43.55,-101.61 -77.43,-29.04 -77.43,82.26 -77.43,82.26 0,0 -4.83,24.19 33.88,19.35z"/>
  <polygon class="fil10" points="1113.77,582.9 1108.93,771.62 1183.93,750.21 1123.45,752.26 "/>
  <path class="fil11" d="M585.76 1638.95c15.12,55.92 66.93,90.55 66.93,90.55 0,0 27.29,-56.03 12.16,-111.95 -15.12,-55.91 -66.93,-90.54 -66.93,-90.54 0,0 -27.29,56.03 -12.16,111.94z"/>
  <path class="fil12" d="M607.98 1626.93c41.51,40.41 46.58,102.52 46.58,102.52 0,0 -62.23,-3.4 -103.73,-43.8 -41.51,-40.4 -46.58,-102.52 -46.58,-102.52 0,0 62.23,3.4 103.73,43.8z"/>
  <rect class="fil8" x="1944.64" y="1099.14" width="74.72" height="74.72"/>
  <circle class="fil8" cx="781.5" cy="972.12" r="37.36"/>
 </g>
</svg>
